<svg xmlns="http://www.w3.org/2000/svg" viewBox="0 0 500 500" width="100%" height="100%">
  <defs>
    <linearGradient id="bg" x1="0%" y1="0%" x2="100%" y2="100%">
      <stop offset="0%" stop-color="#007dff"/>
      <stop offset="100%" stop-color="#001a99"/>
    </linearGradient>
  </defs>

  <rect width="500" height="500" fill="url(#bg)"/>

  <circle cx="250" cy="250" r="120" stroke="#ffffff" stroke-width="12" fill="none"/>

  <path d="M 215 195
           L 260 195
           C 275 195, 285 185, 290 175
           C 275 178, 260 180, 245 180
           L 225 180 Z"
        fill="#ffffff"/>

  <path d="M 220 210
           L 255 210
           C 285 210, 305 235, 290 265
           C 275 295, 245 300, 215 300
           L 195 300
           L 210 280
           C 230 280, 250 275, 260 260
           C 270 240, 250 230, 230 230
           L 205 230 Z"
        fill="#ffffff"/>

  <circle cx="206" cy="255" r="14" fill="#ffffff"/>
</svg>
